# xmcd
#
# Track frame offsets: 
#        150
#        25073
#        38561
#        62516
#        84598
#        114610
#        139053
#        169072
#        195074
#        233765
#        255551
#        266585
#        297251
#
# Disc length: 4095 seconds
#
# Revision: 0
# Processed by: cddbd v1.5.2PL0 Copyright (c) Steve Scherf et al.
# Submitted via: ExactAudioCopy v0.95b3
#
DISCID=a50ffd0d
DTITLE=Rush  - HiFi Buys Amphitheatre Atlanta GA - 2007-06-13 - Disc 2
DTITLE=FLAC
DYEAR=1900
DGENRE=
TTITLE0=Thunder
TTITLE1=Video Intro
TTITLE2=Far Cry
TTITLE3=Workin' Them Angels
TTITLE4=Armor And Sword
TTITLE5=Spindrift
TTITLE6=The Way The Wind Blows
TTITLE7=Subdivisions
TTITLE8=Natural Science
TTITLE9=Witch Hunt
TTITLE10=Malignant Narcissism
TTITLE11=Neil Peart's Drum Solo
TTITLE12=Hope
EXTD=
EXTT0=
EXTT1=
EXTT2=
EXTT3=
EXTT4=
EXTT5=
EXTT6=
EXTT7=
EXTT8=
EXTT9=
EXTT10=
EXTT11=
EXTT12=
PLAYORDER=
